<svg viewBox="0 0 20 20" fill="none" xmlns="http://www.w3.org/2000/svg" xmlns:xlink="http://www.w3.org/1999/xlink" x="0" y="0"><path id="Vector_21" d="M15.34,3.46c-0.2373,0 -0.4693,0.07 -0.6667,0.202c-0.1973,0.132 -0.3511,0.32 -0.442,0.539c-0.0908,0.219 -0.1145,0.46 -0.0682,0.693c0.0463,0.233 0.1605,0.447 0.3284,0.615c0.1678,0.167 0.3816,0.282 0.6144,0.328c0.2328,0.046 0.474,0.022 0.6933,-0.068c0.2188,-0.091 0.4068,-0.245 0.5388,-0.442c0.132,-0.198 0.202,-0.43 0.202,-0.667c0,-0.318 -0.126,-0.623 -0.351,-0.849c-0.2255,-0.225 -0.5307,-0.351 -0.849,-0.351zM19.94,5.88c-0.02,-0.83 -0.175,-1.651 -0.46,-2.43c-0.253,-0.667 -0.649,-1.272 -1.16,-1.77c-0.495,-0.513 -1.1,-0.906 -1.77,-1.15c-0.7773,-0.294 -1.5992,-0.453 -2.43,-0.47c-1.06,-0.06 -1.4,-0.06 -4.12,-0.06c-2.72,0 -3.06,0 -4.12,0.06c-0.8308,0.017 -1.6527,0.176 -2.43,0.47c-0.668,0.247 -1.2726,0.64 -1.77,1.15c-0.5126,0.495 -0.9058,1.1 -1.15,1.77c-0.2938,0.777 -0.4528,1.599 -0.47,2.43c-0.06,1.06 -0.06,1.4 -0.06,4.12c0,2.72 0,3.06 0.06,4.12c0.0172,0.831 0.1762,1.653 0.47,2.43c0.2442,0.67 0.6374,1.275 1.15,1.77c0.4974,0.51 1.102,0.903 1.77,1.15c0.7773,0.294 1.5992,0.453 2.43,0.47c1.06,0.06 1.4,0.06 4.12,0.06c2.72,0 3.06,0 4.12,-0.06c0.8308,-0.017 1.6527,-0.176 2.43,-0.47c0.67,-0.244 1.275,-0.637 1.77,-1.15c0.512,-0.497 0.908,-1.102 1.16,-1.77c0.285,-0.779 0.44,-1.6 0.46,-2.43c0,-1.06 0.06,-1.4 0.06,-4.12c0,-2.72 0,-3.06 -0.06,-4.12zM18.14,14c-0.007,0.635 -0.122,1.264 -0.34,1.86c-0.16,0.435 -0.416,0.828 -0.75,1.15c-0.325,0.33 -0.717,0.586 -1.15,0.75c-0.5962,0.218 -1.2252,0.333 -1.86,0.34c-1,0.05 -1.37,0.06 -4,0.06c-2.63,0 -3,0 -4,-0.06c-0.6592,0.013 -1.3155,-0.089 -1.94,-0.3c-0.4138,-0.173 -0.7881,-0.428 -1.1,-0.75c-0.3319,-0.321 -0.5852,-0.715 -0.74,-1.15c-0.245,-0.605 -0.3804,-1.248 -0.4,-1.9c0,-1 -0.06,-1.37 -0.06,-4c0,-2.63 0,-3 0.06,-4c0.0036,-0.649 0.1221,-1.292 0.35,-1.9c0.176,-0.422 0.4463,-0.798 0.79,-1.1c0.3029,-0.345 0.6786,-0.618 1.1,-0.8c0.6094,-0.221 1.2519,-0.336 1.9,-0.34c1,0 1.37,-0.06 4,-0.06c2.63,0 3,0 4,0.06c0.6348,0.007 1.2638,0.122 1.86,0.34c0.454,0.169 0.862,0.443 1.19,0.8c0.327,0.308 0.583,0.683 0.75,1.1c0.222,0.609 0.337,1.252 0.34,1.9c0.05,1 0.06,1.37 0.06,4c0,2.63 -0.01,3 -0.06,4zM10,4.87c-1.0142,0.002 -2.005,0.305 -2.8473,0.869c-0.8424,0.565 -1.4983,1.367 -1.8851,2.305c-0.3867,0.937 -0.4869,1.968 -0.2878,2.963c0.1991,0.994 0.6884,1.908 1.4063,2.624c0.7178,0.716 1.6319,1.204 2.6268,1.401c0.9948,0.197 2.0258,0.095 2.9626,-0.293c0.9368,-0.389 1.7374,-1.047 2.3006,-1.89c0.5633,-0.843 0.8639,-1.835 0.8639,-2.849c0.0013,-0.675 -0.1308,-1.343 -0.3888,-1.967c-0.2579,-0.624 -0.6366,-1.19 -1.1143,-1.667c-0.4777,-0.477 -1.045,-0.854 -1.6691,-1.111c-0.6242,-0.257 -1.2929,-0.388 -1.9678,-0.385zM10,13.33c-0.6586,0 -1.3024,-0.195 -1.85,-0.561c-0.5477,-0.366 -0.9745,-0.886 -1.2265,-1.495c-0.2521,-0.608 -0.318,-1.278 -0.1895,-1.924c0.1285,-0.646 0.4456,-1.239 0.9113,-1.705c0.4657,-0.465 1.0591,-0.783 1.705,-0.911c0.646,-0.129 1.3156,-0.063 1.924,0.189c0.6085,0.253 1.1286,0.679 1.4945,1.227c0.3659,0.548 0.5612,1.191 0.5612,1.85c0,0.437 -0.0861,0.87 -0.2535,1.274c-0.1673,0.404 -0.4126,0.771 -0.7218,1.081c-0.3093,0.309 -0.6763,0.554 -1.0804,0.722c-0.404,0.167 -0.837,0.253 -1.2743,0.253z" fill="currentColor"/></svg>