<svg viewBox="0 0 21 11" fill="none" xmlns="http://www.w3.org/2000/svg" xmlns:xlink="http://www.w3.org/1999/xlink" x="0" y="0"><path id="Vector_33" d="M0.5,5.6667v3.5M1.9256,4.3937v5.667M3.3513,4.8047v5.679M4.7769,10.4837v-7.223M6.2026,2.7137v7.77M7.6282,10.4837v-7.223M9.0538,2.2097v8.274M10.5,8.7337v1.766h7.395c0.691,0 1.353,-0.29 1.842,-0.806c0.489,-0.516 0.763,-1.216 0.763,-1.946c0,-0.73 -0.274,-1.431 -0.763,-1.947c-0.489,-0.516 -1.151,-0.806 -1.842,-0.806c-0.272,0.004 -0.543,0.053 -0.8,0.146v-0.146c-0.001,-0.811 -0.209,-1.607 -0.603,-2.304c-0.3935,-0.697 -0.9584,-1.267 -1.6344,-1.652c-0.6759,-0.385 -1.4379,-0.57 -2.205,-0.534c-0.7672,0.035 -1.511,0.289 -2.1526,0.735z" stroke="#DCDCDC" stroke-linecap="round" stroke-linejoin="round"/></svg>