<svg viewBox="0 0 20 20" fill="none" xmlns="http://www.w3.org/2000/svg" xmlns:xlink="http://www.w3.org/1999/xlink" x="0" y="0"><g id="Group_2">
<g id="Vector_5">
<path d="M5,13c0,0 4.5,-1 9,1zM4.5,10c0,0 6,-1.5 11,1.5zM4,7c3,-0.5 8,-1 13,2z" fill="#DCDCDC"/>
<path d="M5,13c0,0 4.5,-1 9,1M4.5,10c0,0 6,-1.5 11,1.5M4,7c3,-0.5 8,-1 13,2" stroke="#DCDCDC" stroke-width="1.5" stroke-linecap="round" stroke-linejoin="round"/>
</g>
<path id="Vector_6" d="M10,20c-5.523,0 -10,-4.48 -10,-10c0,-5.52 4.477,-10 10,-10c5.523,0 10,4.48 10,10c0,5.52 -4.477,10 -10,10z" stroke="#DCDCDC" stroke-width="1.5" stroke-linecap="round" stroke-linejoin="round"/>
</g></svg>