<svg viewBox="0 0 20 14.2" fill="none" xmlns="http://www.w3.org/2000/svg" xmlns:xlink="http://www.w3.org/1999/xlink" x="0" y="0"><g id="Group_4">
<path id="Vector_25" d="M12,7.0996l-3.5,2v-4z" fill="#F3F3F3" stroke="#DCDCDC" stroke-width="1.5" stroke-linecap="round" stroke-linejoin="round"/>
<path id="Vector_26" d="M0,7.8076v-1.416c0,-2.895 0,-4.343 0.905,-5.274c0.906,-0.932 2.332,-0.972 5.183,-1.053c1.35,-0.038 2.73,-0.065 3.912,-0.065c1.182,0 2.561,0.027 3.912,0.065c2.851,0.081 4.277,0.121 5.182,1.053c0.905,0.932 0.906,2.38 0.906,5.274v1.415c0,2.896 0,4.343 -0.905,5.275c-0.906,0.931 -2.331,0.972 -5.183,1.052c-1.35,0.039 -2.73,0.066 -3.912,0.066c-1.182,0 -2.561,-0.027 -3.912,-0.066c-2.851,-0.08 -4.277,-0.12 -5.183,-1.052c-0.906,-0.932 -0.905,-2.38 -0.905,-5.274z" stroke="#DCDCDC" stroke-width="1.5"/>
</g></svg>