<svg width="28" height="28" viewBox="0 0 28 28" fill="none" xmlns="http://www.w3.org/2000/svg">
<path d="M19.34 7.46C19.1027 7.46 18.8707 7.53038 18.6733 7.66224C18.476 7.79409 18.3222 7.98151 18.2313 8.20078C18.1405 8.42005 18.1168 8.66133 18.1631 8.89411C18.2094 9.12689 18.3236 9.34071 18.4915 9.50853C18.6593 9.67635 18.8731 9.79064 19.1059 9.83694C19.3387 9.88324 19.5799 9.85948 19.7992 9.76866C20.0185 9.67783 20.2059 9.52402 20.3378 9.32668C20.4696 9.12935 20.54 8.89734 20.54 8.66C20.54 8.34174 20.4136 8.03652 20.1885 7.81147C19.9635 7.58643 19.6583 7.46 19.34 7.46ZM23.94 9.88C23.9204 9.05032 23.765 8.22945 23.48 7.45C23.2269 6.78255 22.831 6.17846 22.32 5.68C21.8248 5.16743 21.2196 4.77418 20.55 4.53C19.7727 4.23616 18.9508 4.07721 18.12 4.06C17.06 4 16.72 4 14 4C11.28 4 10.94 4 9.88 4.06C9.04915 4.07721 8.22734 4.23616 7.45 4.53C6.78198 4.77725 6.17736 5.17008 5.68 5.68C5.16743 6.17518 4.77418 6.78044 4.53 7.45C4.23616 8.22734 4.07721 9.04915 4.06 9.88C4 10.94 4 11.28 4 14C4 16.72 4 17.06 4.06 18.12C4.07721 18.9508 4.23616 19.7727 4.53 20.55C4.77418 21.2196 5.16743 21.8248 5.68 22.32C6.17736 22.8299 6.78198 23.2227 7.45 23.47C8.22734 23.7638 9.04915 23.9228 9.88 23.94C10.94 24 11.28 24 14 24C16.72 24 17.06 24 18.12 23.94C18.9508 23.9228 19.7727 23.7638 20.55 23.47C21.2196 23.2258 21.8248 22.8326 22.32 22.32C22.8322 21.8226 23.2283 21.2182 23.48 20.55C23.765 19.7705 23.9204 18.9497 23.94 18.12C23.94 17.06 24 16.72 24 14C24 11.28 24 10.94 23.94 9.88ZM22.14 18C22.1329 18.6348 22.0179 19.2638 21.8 19.86C21.6403 20.2952 21.3839 20.6884 21.05 21.01C20.7254 21.3403 20.3331 21.5961 19.9 21.76C19.3038 21.9779 18.6748 22.0929 18.04 22.1C17.04 22.15 16.67 22.16 14.04 22.16C11.41 22.16 11.04 22.16 10.04 22.1C9.38085 22.1129 8.72445 22.0114 8.1 21.8C7.68619 21.6273 7.3119 21.3721 7 21.05C6.66809 20.7287 6.41484 20.3352 6.26 19.9C6.01505 19.2954 5.8796 18.652 5.86 18C5.86 17 5.8 16.63 5.8 14C5.8 11.37 5.8 11 5.86 10C5.86365 9.35098 5.98214 8.70772 6.21 8.1C6.38605 7.67791 6.65627 7.30166 7 7C7.30292 6.65519 7.67863 6.38195 8.1 6.2C8.7094 5.97948 9.35194 5.8645 10 5.86C11 5.86 11.37 5.8 14 5.8C16.63 5.8 17 5.8 18 5.86C18.6348 5.86709 19.2638 5.98206 19.86 6.2C20.3144 6.36865 20.7223 6.64285 21.05 7C21.3767 7.30802 21.6326 7.68334 21.8 8.1C22.0224 8.70888 22.1375 9.35176 22.14 10C22.19 11 22.2 11.37 22.2 14C22.2 16.63 22.19 17 22.14 18ZM14 8.87C12.9858 8.87198 11.995 9.17453 11.1527 9.73942C10.3103 10.3043 9.65438 11.1062 9.26763 12.0438C8.88089 12.9813 8.78072 14.0125 8.97979 15.0069C9.17886 16.0014 9.66824 16.9145 10.3861 17.631C11.1039 18.3474 12.018 18.835 13.0129 19.0321C14.0077 19.2293 15.0387 19.1271 15.9755 18.7385C16.9123 18.35 17.7129 17.6924 18.2761 16.849C18.8394 16.0056 19.14 15.0142 19.14 14C19.1413 13.3251 19.0092 12.6566 18.7512 12.033C18.4933 11.4093 18.1146 10.8428 17.6369 10.3661C17.1592 9.88929 16.5919 9.51168 15.9678 9.25493C15.3436 8.99818 14.6749 8.86736 14 8.87ZM14 17.33C13.3414 17.33 12.6976 17.1347 12.15 16.7688C11.6023 16.4029 11.1755 15.8828 10.9235 15.2743C10.6714 14.6659 10.6055 13.9963 10.734 13.3503C10.8625 12.7044 11.1796 12.111 11.6453 11.6453C12.111 11.1796 12.7044 10.8625 13.3503 10.734C13.9963 10.6055 14.6659 10.6714 15.2743 10.9235C15.8828 11.1755 16.4029 11.6023 16.7688 12.15C17.1347 12.6976 17.33 13.3414 17.33 14C17.33 14.4373 17.2439 14.8703 17.0765 15.2743C16.9092 15.6784 16.6639 16.0454 16.3547 16.3547C16.0454 16.6639 15.6784 16.9092 15.2743 17.0765C14.8703 17.2439 14.4373 17.33 14 17.33Z" fill="#F3F3F3"/>
</svg>
